# xmcd CD database file
#
# Track frame offsets:
#	150
#	19195
#	38052
#
# Disc length: 746 seconds
#
# Revision: 0
# Processed by: cddbd v1.5.1PL0 Copyright (c) Steve Scherf et al.
# Submitted via: CDex 1.51
#
DISCID=1a02e803
DTITLE=MUDDY the LUNCH ROAD - オレンジ色にくちづけて
DYEAR=1900
DGENRE=J-POP
TTITLE0=オレンジ色にくちづけて
TTITLE1=Balance
TTITLE2=僕が眠るまで
EXTD=
EXTT0=
EXTT1=
EXTT2=
PLAYORDER=
